<svg xmlns="http://www.w3.org/2000/svg" version="1.1" xmlns:xlink="http://www.w3.org/1999/xlink" xmlns:svgjs="http://svgjs.com/svgjs" width="512" height="512" x="0" y="0" viewBox="0 0 512 512" style="enable-background:new 0 0 512 512" xml:space="preserve" class=""><g><path fill="#7cd2e3" d="M458.489 166.418v239.438c0 4.458-1.515 8.795-4.34 12.244a257.29 257.29 0 0 1-65.695 57.014c-8.034 4.867-17.276 7.375-26.669 7.375H244.638c-56.04 0-101.469-45.429-101.469-101.469v-71.228c0-50.856-41.227-92.082-92.082-92.082-26.118 0-44.325-26.019-35.264-50.514C51.817 69.88 145.267.424 254.996.002c45.731-.176 88.798 11.777 126.129 32.826 48.059 27.098 77.364 78.418 77.364 133.59z" data-original="#7cd2e3"></path><path fill="#8078bf" d="M389.897 474.234C350.941 498.186 305.084 512 256 512c-2.965 0-5.918-.05-8.858-.15-4.168-.142-7.461-3.594-7.461-7.765v-16.394c0-7.432 6.025-13.457 13.457-13.457h78.222V371.027h40v103.207z" data-original="#8078bf" class=""></path><path fill="#958fca" d="M371.36 382.351v52.319c0 11.046-8.954 20-20 20s-20-8.954-20-20v-52.319c0-11.046 8.954-20 20-20s20 8.955 20 20z" data-original="#958fca" class=""></path><path fill="#453d83" d="M330.021 43.616V398.51c0 5.523-4.477 10-10 10H68.672c-5.523 0-10-4.477-10-10V43.616c0-5.523 4.477-10 10-10h251.349c5.523 0 10 4.477 10 10z" data-original="#453d83"></path><path fill="#51489a" d="M512 256c0 57.143-18.722 109.913-50.367 152.51H382.9c-103.4 0-187.222-83.822-187.222-187.222v-.451c0-103.4 83.822-187.221 187.222-187.221C460.024 77.721 512 160.79 512 256z" data-original="#51489a" class=""></path><path fill="#8078bf" d="M468.698 398.511a256.85 256.85 0 0 1-14.885 20H73.681c-11.028 0-25.009-13.972-25.009-25V43.616c0-11.028 8.972-20 20-20H363.54a255.569 255.569 0 0 1 35.436 20H68.672v354.895z" data-original="#8078bf" class=""></path><path fill="#8078bf" d="M462.046 139.461v163.204c0 5.523-4.477 10-10 10h-170.72c-5.523 0-10-4.477-10-10V139.461c0-5.523 4.477-10 10-10h170.72c5.523 0 10 4.477 10 10z" data-original="#8078bf" class=""></path><path fill="#958fca" d="M462.046 139.461v163.204c0 5.523-4.477 10-10 10H313.842c-5.523 0-10-4.477-10-10V139.461c0-5.523 4.477-10 10-10h138.205c5.522 0 9.999 4.477 9.999 10z" data-original="#958fca" class=""></path><path fill="#453d83" d="M359.177 284.095v5.819c0 5.523-4.477 10-10 10h-6.879c-5.523 0-10-4.477-10-10v-5.819c0-5.523 4.477-10 10-10h6.879c5.523 0 10 4.477 10 10zm-51.896-141.744h-6.879c-5.523 0-10 4.477-10 10v5.819c0 5.523 4.477 10 10 10h6.879c5.523 0 10-4.477 10-10v-5.819c0-5.523-4.477-10-10-10zm41.896 0h-6.879c-5.523 0-10 4.477-10 10v5.819c0 5.523 4.477 10 10 10h6.879c5.523 0 10-4.477 10-10v-5.819c0-5.523-4.477-10-10-10zm-41.896 131.744h-6.879c-5.523 0-10 4.477-10 10v5.819c0 5.523 4.477 10 10 10h6.879c5.523 0 10-4.477 10-10v-5.819c0-5.523-4.477-10-10-10zM432.97 142.351h-6.879c-5.523 0-10 4.477-10 10v5.819c0 5.523 4.477 10 10 10h6.879c5.523 0 10-4.477 10-10v-5.819c0-5.523-4.477-10-10-10zm-41.896 131.744h-6.879c-5.523 0-10 4.477-10 10v5.819c0 5.523 4.477 10 10 10h6.879c5.523 0 10-4.477 10-10v-5.819c0-5.523-4.478-10-10-10zm41.896 0h-6.879c-5.523 0-10 4.477-10 10v5.819c0 5.523 4.477 10 10 10h6.879c5.523 0 10-4.477 10-10v-5.819c0-5.523-4.477-10-10-10zm-41.896-131.744h-6.879c-5.523 0-10 4.477-10 10v5.819c0 5.523 4.477 10 10 10h6.879c5.523 0 10-4.477 10-10v-5.819c0-5.523-4.478-10-10-10z" data-original="#453d83"></path><path fill="#fff5f5" d="m389.804 220.36-42.513 29.872c-2.146 1.508-5.1-.027-5.1-2.649v-59.744c0-2.622 2.954-4.157 5.1-2.649l42.513 29.872c1.836 1.289 1.836 4.008 0 5.298z" data-original="#fff5f5" class=""></path><path fill="#ff9100" d="M87.939 256.512c0 16.71-13.547 30.257-30.257 30.257a30.12 30.12 0 0 1-15.301-4.148c-5.152 9.333-15.091 15.655-26.507 15.655-4.598 0-15.455-23.96-15.767-34.782A262.804 262.804 0 0 1 0 256c0-13.357 1.023-26.475 2.995-39.279a32.861 32.861 0 0 1 15.636-3.931c11.817 0 22.183 6.208 28.016 15.541a30.198 30.198 0 0 1 11.036-2.076c16.71.001 30.256 13.547 30.256 30.257z" data-original="#ff9100"></path><path fill="#ff9f22" d="M87.939 256.512c0 12.903-8.077 23.92-19.451 28.27a30.072 30.072 0 0 1-4.494-2.161 30.266 30.266 0 0 1-2.58 3.92c-1.223.15-2.469.229-3.733.229a30.12 30.12 0 0 1-15.301-4.148 30.41 30.41 0 0 1-9.934 10.717c-4.869-7.599-10.503-22.092-10.726-29.843-.072-2.49-.108-4.988-.108-7.495 0-13.357 1.023-26.475 2.995-39.279a32.966 32.966 0 0 1 4.83-2.122 33.105 33.105 0 0 1 17.208 13.732 30.198 30.198 0 0 1 11.036-2.076c3.667 0 7.181.652 10.434 1.847l.144.229.229-.088c11.375 4.35 19.451 15.366 19.451 28.268z" data-original="#ff9f22"></path><path fill="#ffc14f" d="M178.307 222.033a30.13 30.13 0 0 1-18.267 8.7c.542 8.384-2.39 16.951-8.798 23.359-11.816 11.816-30.974 11.816-42.79 0-6.818-6.818-9.702-16.081-8.652-24.967a30.19 30.19 0 0 1-8.283-5.883c-11.816-11.816-11.816-30.974 0-42.79s30.974-11.816 42.79 0l.034.034c.378-.423.77-.838 1.176-1.244 11.816-11.816 30.974-11.816 42.79 0s11.816 30.975 0 42.791zM49.896 155.791c-9.414-7.695-23.135-7.986-32.825-.643-10.901 8.26-13.462 22.577-7.686 33.685-.176.167-.35.337-.523.51-12.276 12.276-11.798 32.476 1.433 44.135 11.388 10.035 28.824 9.954 40.125-.178 10.543-9.452 12.827-24.381 6.852-36.206-1.489-2.947-1.327-6.408.054-9.407 4.898-10.643 2.421-23.844-7.43-31.896z" data-original="#ffc14f" class=""></path><path fill="#ffb52d" d="M41.605 157.646c-7.038 7.038-9.323 18.652-6.858 28.148.843 3.248-.001 6.689-2.295 9.138-5.602 5.978-12.794 18.871 3.815 37.199 2.202 2.43 4.92 4.182 7.693 5.591-11.359 5.77-25.6 3.907-35.097-5.591C-2.37 220.9-2.925 203.033 7.197 191.146c.526-.618 2.303-1.922.899-5.2-4-9.339-1.547-20.648 6.105-28.3 8.835-8.835 22.323-10.181 32.576-4.039a26.797 26.797 0 0 0-5.172 4.039zm94.251 96.447c-6.818-6.818-9.702-16.081-8.652-24.967a30.19 30.19 0 0 1-8.283-5.883c-11.816-11.816-11.816-30.974 0-42.79a30.239 30.239 0 0 1 7.693-5.591c-11.359-5.77-25.6-3.907-35.097 5.591a30.117 30.117 0 0 0-8.06 14.458c4.235 6.89 5.455 15.109 3.66 22.764a30.347 30.347 0 0 0 4.4 5.568 30.232 30.232 0 0 0 8.283 5.883c-1.05 8.886 1.833 18.149 8.652 24.967 9.498 9.498 23.738 11.361 35.097 5.591a30.263 30.263 0 0 1-7.693-5.591z" data-original="#ffb52d"></path><path fill="#ff9f22" d="M225.662 253.706c.085.924.129 1.86.129 2.807 0 16.71-13.547 30.257-30.257 30.257a30.127 30.127 0 0 1-19.069-6.765c-5.545 6.312-13.677 10.296-22.739 10.296-16.711 0-30.257-13.547-30.257-30.257 0-9.642 4.511-18.231 11.537-23.772a30.198 30.198 0 0 1-1.698-10.017c0-16.71 13.547-30.257 30.257-30.257 10.184 0 19.193 5.032 24.677 12.745 5.484-7.713 14.493-12.745 24.677-12.745 16.711 0 30.257 13.547 30.257 30.257.001 12.159-7.17 22.642-17.514 27.451z" data-original="#ff9f22"></path><path fill="#ff9100" d="M166.961 226.256v.105c.02 5.972-1.415 11.904-4.739 16.866a30.112 30.112 0 0 0-5.101 16.817c0 10.483 5.332 19.721 13.431 25.15-5.15 3.453-11.419 5.365-18.149 5.079-15.388-.655-28.022-13.105-28.886-28.483-.401-7.136 1.673-13.774 5.442-19.133 3.102-4.411 4.608-9.691 4.376-15.078a31.05 31.05 0 0 1 .092-4.058c1.268-14.442 12.913-26.109 27.353-27.399 7.282-.651 14.089 1.281 19.61 4.982-8.097 5.431-13.429 14.669-13.429 25.152z" data-original="#ff9100"></path><path fill="#ffd993" d="M121.166 240.308c12.274 12.274 11.798 32.468-1.426 44.129-11.432 10.079-28.957 9.951-40.253-.281-7.149-6.477-10.455-15.486-9.917-24.305.25-4.101-2.179-7.873-5.923-9.563a30.212 30.212 0 0 1-9.264-6.52 30.17 30.17 0 0 1 .33-42.458c11.816-11.815 30.973-11.815 42.789.001 6.272 6.272 9.214 14.612 8.828 22.825-.198 4.205 2.009 8.238 5.849 9.963a30.162 30.162 0 0 1 8.987 6.209zm90.79-54.131a24.379 24.379 0 0 0-7.634-5.967c-3.434-1.711-5.629-5.22-5.549-9.056.145-7-2.717-14.05-8.587-19.047-9.099-7.747-22.793-7.61-31.75.301-10.604 9.365-10.981 25.57-1.13 35.42a24.273 24.273 0 0 0 6.227 4.514c3.47 1.752 5.741 5.241 5.663 9.128a24.228 24.228 0 0 0 7.11 17.67c9.856 9.856 26.075 9.473 35.436-1.149 7.924-8.992 8.021-22.72.214-31.814z" data-original="#ffd993"></path><path fill="#ffe1aa" d="M210.663 184.782c6.733 6.733 8.688 16.434 5.865 24.891-8.457 2.823-18.158.868-24.891-5.865a24.22 24.22 0 0 1-7.11-17.67c.078-3.886-2.193-7.376-5.663-9.128a24.297 24.297 0 0 1-6.227-4.514c-6.733-6.733-8.688-16.434-5.865-24.891 8.457-2.823 18.158-.868 24.891 5.864a24.22 24.22 0 0 1 7.11 17.67c-.078 3.886 2.193 7.376 5.663 9.128a24.3 24.3 0 0 1 6.227 4.515zm-98.484 49.316c-3.84-1.725-6.046-5.758-5.849-9.963.386-8.213-2.556-16.553-8.828-22.825-9.115-9.115-22.598-11.198-33.71-6.251-4.947 11.112-2.864 24.595 6.251 33.71a30.196 30.196 0 0 0 8.987 6.21c3.84 1.725 6.046 5.758 5.849 9.963-.386 8.213 2.556 16.553 8.828 22.825 9.115 9.115 22.598 11.198 33.71 6.251 4.947-11.112 2.864-24.595-6.251-33.71a30.183 30.183 0 0 0-8.987-6.21zm5.057-123.004a24.26 24.26 0 0 0-7.595 1.211c-3.693 1.214-7.766.353-10.459-2.45-4.421-4.602-10.637-7.467-17.522-7.467-13.939 0-25.137 11.74-24.245 25.871.755 11.961 10.393 21.736 22.344 22.646a24.393 24.393 0 0 0 9.437-1.119c3.702-1.207 7.828-.367 10.526 2.439 4.846 5.04 11.847 7.994 19.522 7.378 11.912-.956 21.498-10.735 22.239-22.662.876-14.121-10.316-25.847-24.247-25.847z" data-original="#ffe1aa"></path><path fill="#ffe7c0" d="M122.001 142.375a24.221 24.221 0 0 1-17.523-7.467c-2.693-2.803-6.766-3.664-10.459-2.45a24.27 24.27 0 0 1-7.595 1.211c-12.518 0-22.824-9.468-24.15-21.633 4.435-5.861 11.467-9.648 19.384-9.648a24.221 24.221 0 0 1 17.522 7.467c2.693 2.803 6.766 3.665 10.459 2.45a24.27 24.27 0 0 1 7.595-1.211c12.518 0 22.824 9.468 24.15 21.633-4.434 5.861-11.466 9.648-19.383 9.648z" data-original="#ffe7c0"></path><path fill="#ffb52d" d="M269.978 268.422c-8.274 8.274-20.147 10.754-30.578 7.441a30.115 30.115 0 0 1-8.419 16.223c-11.816 11.816-30.974 11.816-42.79 0s-11.816-30.974 0-42.79c8.274-8.274 20.147-10.754 30.578-7.441a30.115 30.115 0 0 1 8.419-16.223c11.816-11.816 30.974-11.816 42.79 0s11.816 30.973 0 42.79z" data-original="#ffb52d"></path><path fill="#ffc14f" d="M269.979 225.633a30.307 30.307 0 0 1 5.058 6.693 30.56 30.56 0 0 1-3.003 3.494 30.142 30.142 0 0 1-19.481 8.802c-6.149.387-11.785 3.753-14.958 9.034a30.372 30.372 0 0 1-4.974 6.236c-11.938 11.497-30.657 11.312-42.375-.409a30.307 30.307 0 0 1-5.058-6.693 30.56 30.56 0 0 1 3.003-3.494c6.523-6.523 15.282-9.444 23.809-8.766 3.717.296 7.256-1.852 8.707-5.287a30.198 30.198 0 0 1 6.887-10.009c11.934-11.506 30.662-11.324 42.385.399z" data-original="#ffc14f" class=""></path><path fill="#ea552d" d="M233.544 398.511h4.928c14.535 0 25.586 13.06 23.18 27.395l-14.425 85.946a256.284 256.284 0 0 1-48.677-6.323 3.008 3.008 0 0 1-2.281-3.432l14.093-83.972c1.901-11.322 11.702-19.614 23.182-19.614zm-91.203-36.16c16.038 0 28.231 14.41 25.577 30.227l-15.871 94.567c-.226 1.346-1.672 2.121-2.912 1.55a255.746 255.746 0 0 1-42.74-24.937 5.376 5.376 0 0 1-2.137-5.249l12.506-74.517c2.097-12.491 12.911-21.641 25.577-21.641zm-90.767-62.436h4.6c14.635 0 25.763 13.15 23.34 27.584L63.798 421.14c-.222 1.322-1.893 1.793-2.762.773a256.19 256.19 0 0 1-37.644-58.859c-1.181-2.561-1.528-5.428-1.062-8.209l5.905-35.181c1.912-11.4 11.78-19.749 23.339-19.749z" data-original="#ea552d"></path><path fill="#f76937" d="m284.186 291.642-22.654 134.977c-2.189 13.043-13.948 22.268-27.138 21.293l-.672-.05c-15.026-1.125-25.848-14.907-23.354-29.767l22.664-135.037c2.371-14.126 15.744-23.656 29.87-21.285 14.125 2.37 23.655 15.743 21.284 29.869zm-99.327 0-18.26 108.797c-2.867 17.082-21.496 26.519-36.932 18.663l-.48-.245c-10.001-5.114-15.574-16.083-13.715-27.161l18.233-108.638c2.371-14.126 15.744-23.656 29.87-21.285 14.125 2.37 23.655 15.743 21.284 29.869zm-99.327 0-7.766 49.115c-3.738 22.275-32.247 29.168-45.893 11.169l-.403-.533c-4.236-5.615-5.946-12.74-4.782-19.676l7.6-48.128c2.339-13.937 15.243-23.883 29.238-21.927 14.522 2.029 24.417 15.615 22.006 29.98z" data-original="#f76937"></path><path fill="#d63030" d="m35.869 291.642-12.116 72.192C9.503 333.194 1.137 299.264.108 263.495c4.41-1.888 38.131 14.021 35.761 28.147zm177.638 125.217-14.884 88.686a254.171 254.171 0 0 1-49.747-16.968l13.478-80.303c2.097-12.492 12.91-21.642 25.577-21.642 16.037-.001 28.231 14.41 25.576 30.227zM96.454 339.851c16.038 0 28.232 14.411 25.577 30.227l-15.713 93.626a257.49 257.49 0 0 1-45.532-42.083l10.091-60.128c2.097-12.492 12.911-21.642 25.577-21.642z" data-original="#d63030"></path><path fill="#f44545" d="M35.769 292.236c-2.433 14.497-21.921 17.409-28.579 4.303-1.496-2.945-5.694-12.638-5.892-14.604a258.343 258.343 0 0 1-1.19-18.44 25.803 25.803 0 0 1 14.196-1.768c14.247 2.234 23.852 16.286 21.465 30.509zm198.753-.594-21.307 126.954c-2.524 15.038-17.524 24.584-32.213 20.493l-.502-.14c-12.647-3.548-20.605-16.037-18.43-28.992l21.298-126.9c2.371-14.126 15.744-23.656 29.87-21.285s23.655 15.744 21.284 29.87zm-99.327 0-13.371 79.67c-3.266 19.461-26.299 28.062-41.612 15.616l-.451-.367c-7.132-5.821-10.567-15.041-9.043-24.119l13.234-78.853c2.339-13.937 15.243-23.883 29.238-21.927 14.521 2.029 24.416 15.616 22.005 29.98z" data-original="#f44545"></path><path fill="#ffc14f" d="M499.611 145.783c-9.18 12.116-34.864 8.117-57.365-8.932a93.999 93.999 0 0 1-7.992-6.78c-4.502 12.523-12.752 20.824-21.749 20.36-10.826-.558-19.271-13.625-20.951-30.796-3.743 2.054-7.805 3.09-12.005 2.874-16.519-.851-28.922-20.74-27.702-44.423 1.088-21.121 12.643-38.125 26.847-40.955a11.9 11.9 0 0 1-.467-1.318c-.622-2.153 75.446 72.796 124.51 96.751.546 5.096-.426 9.656-3.126 13.219z" data-original="#ffc14f" class=""></path><path fill="#fff36c" d="M502.816 136.95c-51.387-18.801-95.648-53.74-125.861-99.399.575-.164 9.568-24.066 26.352-28.91 16.785-4.844 32.769-.533 35.702 9.629 1.353 4.687-.307 9.8-4.136 14.425 19.746-1.035 36.021 6.277 37.256 17.245.422 3.752-.966 7.478-3.756 10.892 11.784 4.668 19.488 12.791 19.032 21.63-.267 5.177-3.292 9.821-8.203 13.471 15.579 13.067 24.552 29.152 23.614 41.017z" data-original="#fff36c"></path><path fill="#f29500" d="M460.349 116.769a4.998 4.998 0 0 1-6.923 1.44c-11.928-7.821-24.898-18.606-37.609-30.915.189 9.973 2.644 21.935 6.347 29.406a4.999 4.999 0 1 1-8.959 4.44c-5.724-11.546-8.724-30.559-6.846-43.335a404.883 404.883 0 0 1-18.29-20.329c-1.964 10.77-1.987 23.987.283 32.782a5 5 0 1 1-9.682 2.5c-3.278-12.697-2.582-31.77 1.459-45.052-10.877-13.849-20.221-27.793-26.747-40.408A4.999 4.999 0 0 1 355.527.56a5 5 0 0 1 6.738 2.144c6.291 12.161 15.293 25.6 25.772 38.951 10.473 3.721 27.978 4.573 38.569 1.838a5 5 0 1 1 2.5 9.683c-5.076 1.31-11.24 1.943-17.605 1.943-4.378 0-8.85-.299-13.13-.882a390.334 390.334 0 0 0 16.902 18.467c7.845 2.307 20.528 2.327 28.133-.005a5 5 0 0 1 2.932 9.56c-4.751 1.457-10.805 2.181-16.889 2.181-.738 0-1.477-.011-2.213-.032 10.767 10.046 21.605 18.835 31.674 25.437a5.002 5.002 0 0 1 1.439 6.924z" data-original="#f29500"></path></g></svg>